# xmcd CD Database Entry
#
# Track frame offsets:
# 150
# 10822
# 23582
# 35159
# 48168
# 68143
# 76928
# 90817
#
# Disc length: 1422 seconds
#
# Revision: 1
# Processed by: cddbd v1.4PL0 Copyright (c) Steve Scherf et al.
# Submitted via: tcd 2.0b
#
DISCID=4e058c08
DTITLE=Diana Leigh and Crazy Rhythm - Crazy 8
DYEAR=1900
DGENRE=
TTITLE0=I Can't Believe
TTITLE1=I'll Always Be In Love With You
TTITLE2=Mister Five By Five
TTITLE3=Come Into My Arms
TTITLE4=Comes Love
TTITLE5=House Of Blue Lights
TTITLE6=Too Lazy
TTITLE7=Rock Me To Sleep
EXTD=
EXTT0=
EXTT1=
EXTT2=
EXTT3=
EXTT4=
EXTT5=
EXTT6=
EXTT7=
PLAYORDER=
